<svg xmlns="http://www.w3.org/2000/svg" viewBox="0 0 512 512"><defs><style>.cls-1{fill:#232829;}.cls-2{fill:#418fcd;}.cls-3{fill:none;stroke:#f16723;stroke-miterlimit:10;stroke-width:18px;}.cls-4{font-size:105.7px;fill:#fff;font-family:RobotoMono-Bold, Roboto Mono;font-weight:700;}</style></defs><g id="Background"><rect class="cls-1" width="512" height="512"/></g><g id="Sound_Waves" data-name="Sound Waves"><rect class="cls-2" x="173.58" y="67.96" width="45.28" height="381.59" rx="22.64"/><rect class="cls-2" x="233.36" y="140.01" width="45.28" height="237.5" rx="22.64"/><rect class="cls-2" x="293.13" y="108.87" width="45.28" height="299.77" rx="22.64"/><rect class="cls-2" x="352.91" y="190.79" width="45.28" height="135.94" rx="22.64"/><rect class="cls-2" x="113.81" y="160.83" width="45.28" height="195.85" rx="22.64"/><rect class="cls-2" x="54.04" y="217.04" width="45.28" height="83.43" rx="22.64"/><rect class="cls-2" x="412.68" y="231.11" width="45.28" height="55.3" rx="22.64"/></g><g id="Stylized_Text" data-name="Stylized Text"><path class="cls-3" d="M145.38,313.27,183.43,205a9.31,9.31,0,0,1,17.61.16l35.81,108.16"/><path class="cls-3" d="M214.51,198.73H276.7S299,199.91,299,220.44s-19.32,19.92-19.32,19.92H249.63a9.13,9.13,0,0,0-6.89,15.11L293,313.27"/><text class="cls-4" transform="translate(303.19 314.89)">t</text></g></svg>