<svg xmlns="http://www.w3.org/2000/svg" viewBox="0 0 512 512"><defs><style>.cls-1{fill:#418fcd;}.cls-2{fill:#fff;}.cls-3{fill:#232829;}.cls-4{fill:#f16723;}</style></defs><g id="Sound_Waves" data-name="Sound Waves"><rect class="cls-1" x="195.54" y="118.78" width="33.22" height="279.95" rx="16.61"/><rect class="cls-1" x="239.39" y="171.64" width="33.22" height="174.25" rx="16.61"/><rect class="cls-1" x="283.24" y="148.79" width="33.22" height="219.93" rx="16.61"/><rect class="cls-1" x="327.09" y="208.89" width="33.22" height="99.74" rx="16.61"/><rect class="cls-1" x="151.68" y="186.92" width="33.22" height="143.68" rx="16.61"/><rect class="cls-1" x="107.83" y="228.15" width="33.22" height="61.21" rx="16.61"/><rect class="cls-1" x="370.95" y="238.47" width="33.22" height="40.57" rx="16.61"/></g><g id="Layer_4" data-name="Layer 4"><path class="cls-2" d="M324.65,302.61a22.4,22.4,0,0,1-6.89-1,14.6,14.6,0,0,1-5.66-3.34,14.91,14.91,0,0,1-3.62-5.72,22.62,22.62,0,0,1-1.21-7.8V268.61h-9.36V255.84h9.36v-10h15.52v10h15.3v12.77h-15.3v15.1a9.27,9.27,0,0,0,.38,2.92A3.35,3.35,0,0,0,324,288a3,3,0,0,0,1.26.68,8.58,8.58,0,0,0,2.33.29c.73,0,1.49,0,2.26-.11s1.56-.16,2.28-.27,1.42-.22,2.06-.34,1.12-.22,1.55-.34l2.72-.71,1.65,11.67-1.45.85a15.26,15.26,0,0,1-3.07,1.34,25.36,25.36,0,0,1-3.46.85c-1.17.22-2.41.39-3.68.51S325.88,302.61,324.65,302.61Z"/><path class="cls-3" d="M320.29,248.31v10h15.3v7.77h-15.3v17.6a11.66,11.66,0,0,0,.51,3.73,5.74,5.74,0,0,0,1.46,2.39,5.59,5.59,0,0,0,2.29,1.27,11.21,11.21,0,0,0,3,.38c.81,0,1.64,0,2.48-.12s1.66-.17,2.43-.28l2.15-.36c.67-.13,1.25-.25,1.73-.38l1,7.23a12.9,12.9,0,0,1-2.58,1.12,25.3,25.3,0,0,1-3.14.77c-1.11.21-2.26.36-3.46.48s-2.38.17-3.54.17a19.88,19.88,0,0,1-6.12-.89,12.06,12.06,0,0,1-4.69-2.76,12.3,12.3,0,0,1-3-4.78,20.14,20.14,0,0,1-1.06-6.94V266.11h-9.36v-7.77h9.36v-10h10.52m5-5H304.77v10h-9.36v17.77h9.36v13.63a25.15,25.15,0,0,0,1.36,8.66,17.47,17.47,0,0,0,4.24,6.66A17.14,17.14,0,0,0,317,304a24.92,24.92,0,0,0,7.66,1.13c1.31,0,2.66-.07,4-.19s2.65-.31,3.89-.54a28.46,28.46,0,0,0,3.77-.93,17.81,17.81,0,0,0,3.58-1.57l2.89-1.69-.47-3.32-1-7.23-.79-5.56-5.43,1.42c-.38.1-.84.2-1.38.31s-1.27.22-2,.32-1.4.19-2.15.25-1.38.1-2,.1a6,6,0,0,1-1.65-.2.63.63,0,0,1-.22-.09h0a1.7,1.7,0,0,1-.15-.36,6.49,6.49,0,0,1-.25-2.12v-12.6h15.3V253.34h-15.3v-10Z"/><path class="cls-3" d="M230.58,207.49h46c7.83.41,22.65,5.65,22.65,22.52,0,8-3.23,12.85-5.94,15.48-5.58,5.41-12.94,5.74-14.73,5.74H256.27s0,.07,0,.11l0,0,36.87,42.4-10,8.67-36.87-42.4a13.31,13.31,0,0,1,10-22h22.26a8.71,8.71,0,0,0,5.5-2.06c1.25-1.24,1.88-3.24,1.88-5.95,0-3.62-1.34-6-4.33-7.59a16.05,16.05,0,0,0-5.72-1.73H230.58V207.49m-19.61-5,11.75,5.13,2.86,13.08v5h50.07a11.18,11.18,0,0,1,3.62,1.12c1.17.64,1.72,1.16,1.72,3.2a4.59,4.59,0,0,1-.41,2.42,4.38,4.38,0,0,1-2,.59H256.35a18.3,18.3,0,0,0-13.81,30.31l36.87,42.4,3.28,3.77,3.77-3.28,10-8.67,3.77-3.28-3.28-3.77-29.8-34.27h11.41c2.54,0,11.36-.52,18.21-7.15,3.4-3.3,7.46-9.29,7.46-19.07,0-11.35-5.66-17.93-10.41-21.45a32.54,32.54,0,0,0-17-6.06H211Z"/><path class="cls-4" d="M283.18,302.46l-36.87-42.4a13.31,13.31,0,0,1,10-22h22.26a8.71,8.71,0,0,0,5.5-2.06c1.25-1.24,1.88-3.24,1.88-5.95,0-3.62-1.34-6-4.33-7.59a16.05,16.05,0,0,0-5.72-1.73H228s-1.72-6.68-4.64-10.38c-2-2.53-3.51-2.94-3.51-2.94l56.7.13c7.83.41,22.65,5.65,22.65,22.52,0,8-3.23,12.85-5.94,15.48-5.79,5.61-13.49,5.76-14.91,5.74H256.27s0,.07,0,.11l0,0,36.87,42.4Z"/><path class="cls-4" d="M167.44,297.46l28.75-81.82A15.77,15.77,0,0,1,211.24,205h.12a15.74,15.74,0,0,1,15,10.92l27.06,81.72-17.29,5.73-25-75.38L184.62,303.5Z"/><path class="cls-3" d="M211.24,207.49h.1A13.28,13.28,0,0,1,224,216.7l26.27,79.35L237.7,300.2l-26.27-79.35a.53.53,0,0,0-.06-.13s-.08,0-.14,0a.4.4,0,0,0-.17,0,.57.57,0,0,0-.05.12l-27.92,79.46-12.46-4.38,27.92-79.46a13.27,13.27,0,0,1,12.69-9m0-5a18.25,18.25,0,0,0-17.41,12.32l-27.92,79.47L164.26,299l4.71,1.66L181.43,305l4.72,1.66,1.66-4.72,23.28-66.25,21.86,66,1.58,4.75,4.74-1.58,12.54-4.15,4.75-1.57L255,294.48l-26.27-79.35a18.2,18.2,0,0,0-17.32-12.64Z"/></g></svg>